<?xml version="1.0" standalone="no"?>
<!DOCTYPE svg PUBLIC "-//W3C//DTD SVG 20010904//EN"
 "http://www.w3.org/TR/2001/REC-SVG-20010904/DTD/svg10.dtd">
<svg version="1.0" xmlns="http://www.w3.org/2000/svg"
 width="512.000000pt" height="512.000000pt" viewBox="0 0 512.000000 512.000000"
 preserveAspectRatio="xMidYMid meet">

<g transform="translate(0.000000,512.000000) scale(0.100000,-0.100000)"
fill="#000000" stroke="none">
<path d="M0 2562 l0 -689 92 13 c51 7 99 13 106 14 9 0 12 81 12 372 0 205 4
368 8 362 5 -5 62 -162 126 -349 65 -187 120 -343 121 -346 2 -3 53 0 112 7
59 7 111 13 116 14 4 0 7 290 7 645 l0 645 -105 0 -105 0 0 -387 c0 -212 -3
-383 -7 -380 -3 4 -68 177 -142 385 l-136 377 -103 3 -102 3 0 -689z"/>
<path d="M910 2614 l0 -637 58 6 c59 7 264 23 437 35 l100 7 3 104 3 104 -113
-7 c-62 -3 -150 -9 -195 -13 l-83 -6 0 162 0 161 145 0 145 0 0 105 0 105
-145 0 -145 0 0 145 0 145 193 2 192 3 0 105 0 105 -297 3 -298 2 0 -636z"/>
<path d="M1650 3140 l0 -110 110 0 110 0 0 -495 0 -495 33 0 c19 0 68 3 110 6
l77 7 0 488 0 489 110 0 110 0 0 110 0 110 -330 0 -330 0 0 -110z"/>
<path d="M2450 2650 l0 -601 108 3 107 3 3 242 2 242 143 3 142 3 3 103 3 102
-146 0 -145 0 0 140 0 140 190 0 190 0 0 110 0 110 -300 0 -300 0 0 -600z"/>
<path d="M3190 2645 l0 -605 88 -1 c48 0 178 -6 290 -12 l202 -12 0 102 c0 88
-2 102 -17 107 -10 3 -91 8 -180 12 l-163 7 -2 501 -3 501 -107 3 -108 3 0
-606z"/>
<path d="M3960 2626 l0 -624 78 -6 c42 -4 89 -9 105 -11 l27 -4 0 634 0 635
-105 0 -105 0 0 -624z"/>
<path d="M4360 3242 c0 -4 54 -147 120 -317 66 -170 120 -316 120 -323 0 -8
-59 -151 -132 -319 -100 -232 -128 -307 -118 -313 19 -12 201 -23 209 -14 5 5
41 87 81 182 47 110 76 168 81 159 4 -7 40 -96 79 -197 39 -102 76 -188 82
-191 14 -9 218 -32 225 -26 3 3 -52 153 -122 334 -70 180 -132 340 -137 355
-8 23 5 62 98 275 59 136 122 283 140 326 l33 77 -117 0 -118 0 -74 -176 c-41
-97 -78 -178 -81 -180 -3 -2 -37 77 -75 176 l-69 180 -112 0 c-62 0 -113 -3
-113 -8z"/>
</g>
</svg>
